<svg width="71" height="59" fill="none" xmlns="http://www.w3.org/2000/svg"><path d="M59.8825 23.8063c-1.724-4.0971-4.5004-7.6745-8.0525-10.3758-3.5522-2.7012-7.756-4.43193-12.1926-5.01962-4.4366-.58769-8.951-.01183-13.0933 1.67022-4.1424 1.682-7.7679 4.4114-10.5154 7.9162-2.7475 3.5048-4.521 7.6626-5.1437 12.0591-.6228 4.3965-.073 8.878 1.5945 12.9981 1.6675 4.12 4.3945 7.7347 7.9092 10.4837 3.5147 2.749 7.6943 4.5364 12.1224 5.1841-.58-2.0732-1.17-4.3645-1.69-6.7948 1.5128.9734 3.1051 1.8195 4.7602 2.5295 0 0 .12 2.1425.28 4.5331a25.68524 25.68524 0 005.3303-.4662 2.10353 2.10353 0 010-.7539c.29-1.8549 1.09-5.1977 1.25-7.3502 1.1534-1.07 2.1318-2.3116 2.9002-3.6801l-.06.4365c-.5501 4.2256-1.7001 8.7389-2.4001 9.9887a5.53613 5.53613 0 01-.8301 1.1407c3.62-.8423 7.012-2.4554 9.9408-4.7275 2.9288-2.2722 5.3244-5.1489 7.0206-8.4308 1.6963-3.282 2.6526-6.8905 2.8028-10.5756.1501-3.685-.5096-7.3584-1.9333-10.7654zm-1.4701 3.7594c-.44.4266-1.35.7142-1.5001-.5753-.15-1.2895-.19-2.1921-.19-2.1921s-1.9301-3.4024-2.6501-3.442c-.72-.0397-5.8303 3.442-7.1804 4.9596-1.17 1.2796-1.4 1.1903-1.4 3.442 0 1.6962.22 8.1041.1 13.0042l-8.1504 2.1525a64.45163 64.45163 0 01-7.8004 1.7061l-1.0001-5.7829h-.14L25.9308 27.774s-3.8102-1.4283-5.2102-1.8152c-.6574-.2853-1.3834-.378-2.0922-.2673-.7088.1108-1.3709.4203-1.908.8922-.5481.476-.9862 1.0634-1.2848 1.7224-.2985.659-.4504 1.3741-.4453 2.0966.2114.461.3723.9432.48 1.4383.05.4761-1.2001.4265-2.0001.4265-.8 0-.92-1.4284-.29-3.1048a22.54386 22.54386 0 011.8201-3.7098c.541-1.0532 1.2389-2.0196 2.0701-2.8667 0 0 .14-.3372 1.25-.238 1.1101.0992 7.2804.4265 7.2804.4265l.05-2.2517a143.92987 143.92987 0 0120.241-1.3292v1.8153c2.5644-1.1608 5.3257-1.8337 8.1404-1.9839a.91618.91618 0 01.4342.0971.9071.9071 0 01.3358.2898c.3401.4265 2.4102 2.9758 2.6502 3.3428a27.7303 27.7303 0 011.8301 2.9758c-.1874.6515-.4813 1.2681-.8701 1.8251v.0099z" fill="#FDC305"/><path d="M56.4628 21.4951c.4701.5952.8801 1.1209 1.0001 1.2796.6722.953 1.2835 1.9468 1.8301 2.9758a6.1672 6.1672 0 01-.8601 1.7656c-.44.4266-1.35.7142-1.5-.5753-.15-1.2895-.21-2.1425-.21-2.1425s-1.9301-3.4024-2.6502-3.442c-.72-.0397-5.8303 3.442-7.1803 4.9596-1.1701 1.2796-1.4001 1.1903-1.4001 3.442 0 1.4879.17 6.5963.13 11.1394 1.8101.1984 4.4702.6943 5.2703 1.8648 0 0-.29-7.1221 7.8104-3.3924 0 0 .28-9.711 11.4605-7.2212-3.8007-4.4262-8.46-8.0491-13.7007-10.6534zM45.9323 19.1938a89.01512 89.01512 0 00-1.4001-16.39656s-.15-1.28951-.87-.23806c-.5942 1.25699-.9986 2.5939-1.2001 3.96772a71.46096 71.46096 0 00-12.8206.33725c-.8201-2.7278-2.2201-3.96772-2.8902-3.64038-.67.32734-.75 3.25353-.75 3.25353l-.33 14.0457a143.9416 143.9416 0 0120.261-1.3292z" fill="#F06351"/><path d="M45.3515 46.7397c.13-1.0613.2-2.4699.24-4.0272l-8.15 2.1525a64.43372 64.43372 0 01-7.8 1.7557l1.11 4.9597c0 .1091 0 .2182.07.3273 1.5127.9734 3.105 1.8195 4.76 2.5294 2.4187-1.1468 4.7223-2.5185 6.88-4.0967V50.4c1.1481-1.0648 2.123-2.2995 2.89-3.6603z" fill="#E55645"/><path d="M32.0016 16.0891c-.05-.0992 1 .6745 1.41.9126.41.238.61.4166.61.5852 0 .1687-.26.3373-.62.3373s-.92-.1191-1-.2579c-.08-.1389.6 0 .94 0h.29c-.6157-.4468-1.1644-.9778-1.63-1.5772zM39.502 16.1982s-1 1.2697-1.09 1.3292c-.09.0595-.1701.3373.1899.2877a8.1458 8.1458 0 001.22-.2778c.11-.0595.0701-.1984-.1199-.1785-.19.0198-.68.0496-1 .1091l.8499-1.2598s.0301-.119-.0499-.0099zM36.3617 22.2589c.4636-.2026.8467-.5512 1.09-.9919.28-.6547 0-.9027-.44-.992-.6053-.1095-1.23.0109-1.75.3373-.39.367-.34.7241 0 .9919.3378.2628.7074.4827 1.1.6547z" fill="#000"/><path d="M36.0016 23.5087a2.0353 2.0353 0 01-.46.5952c-.2848.2273-.6349.3592-1 .3769-.5506.0536-1.1011-.1024-1.54-.4364-.2016-.117-.381-.268-.53-.4464a1.00225 1.00225 0 00-.36-.248s.75 4.0769 2.57 4.7315c1.82.6547 2.16-.7538 2.21-1.1308.0609-1.1289-.225-2.2496-.82-3.2138 0-.2976-.02-.0992-.07-.2282z" fill="#F06351"/><path d="M34.3015 24.6395c-.468-.0667-.9175-.2268-1.3214-.4706-.4038-.2438-.7538-.5662-1.0286-.9478a.14816.14816 0 01-.0382-.0992c0-.0366.0136-.0719.0382-.0992a.13953.13953 0 01.0458-.0308.1404.1404 0 01.1085 0 .13912.13912 0 01.0457.0308c.2475.3444.5614.6366.9236.8596.3623.2231.7655.3726 1.1864.4398.333-.0248.6553-.1276.9404-.3001.2851-.1724.5249-.4095.6996-.6918l.14-.1885.1.2183s.38.7538 1 .7935c.62.0397 1.06-.4166 1.63-1.2796a.14391.14391 0 01.0917-.0609.14512.14512 0 01.1083.0212.1429.1429 0 01.0614.091.1422.1422 0 01-.0214.1074c-.6666.9721-1.2966 1.4383-1.89 1.3986a1.5571 1.5571 0 01-.6427-.2361c-.1938-.1253-.3569-.292-.4773-.488-.1956.271-.4497.4954-.7438.6567a2.27292 2.27292 0 01-.9562.2757z" fill="#000"/><path d="M36.2616 37.9909c2.0711 0 3.75-1.6654 3.75-3.7197 0-2.0544-1.6789-3.7198-3.75-3.7198s-3.75 1.6654-3.75 3.7198c0 2.0543 1.6789 3.7197 3.75 3.7197z" fill="#FDC305"/><path d="M41.2316 31.2458l-3.13 1.2994 1.15-5.5845-7.5 9.6812 3.13-1.2994-1.15 5.5945 7.5-9.6912zm-7.39 3.7991l4.16-5.3663-.81 3.9677 2-.8134-4.19 5.3763.81-3.9678-1.97.8035zM32.4415 33.5868c.6186 0 1.12-.4974 1.12-1.111 0-.6136-.5014-1.111-1.12-1.111-.6185 0-1.12.4974-1.12 1.111 0 .6136.5015 1.111 1.12 1.111zM38.9619 37.614c.4363 0 .79-.3509.79-.7836 0-.4328-.3537-.7837-.79-.7837s-.79.3509-.79.7837c0 .4327.3537.7836.79.7836zM39.9219 35.4615c.1933 0 .35-.1554.35-.3472 0-.1917-.1567-.3471-.35-.3471-.1933 0-.35.1554-.35.3471 0 .1918.1567.3472.35.3472z" fill="#111"/><path d="M45.8822 20.9892c-1.8052 1.6142-3.5054 3.3403-5.0902 5.168-1.5787 1.8145-3.3602 3.4451-5.3103 4.8605-.22-.5258-1.6301-1.5078-1.6301-1.5078s-3.1401-2.1326-5.2002-3.809a31.78059 31.78059 0 01-3.1402-2.9758l-2.0001-.1091c2.8872 4.1831 7.1169 7.2737 12.0006 8.7687.86-.1389 3.2802-1.8549 5.0903-3.2536 2.1414-1.8064 4.1469-3.7657 6.0002-5.8623.4982-.5872.8845-1.2594 1.1401-1.9838-1.14.3769-1.8601.7042-1.8601.7042z" fill="#F06351"/><path d="M65.2227 3.47176l-8.46 9.36384-1.22-1.974L63.6927 0l1.53 3.47176zM62.6531 17.1207l5.54-4.0768-.78-3.70984-5.4 4.77114.64 3.0155zM59.923 48.9716l6.13 3.1543 3.01-2.3211-6.69-2.7278-2.45 1.8946zM1.94995 5.92182l3.07-3.33288L14.31 11.5163l-1.22 2.2616L1.94995 5.92182zM7.38003 16.1486l-4.7-3.1047-2.4 3.8387 5.15 2.3807 1.95-3.1147zM13.91 52.1259l-4.55001 3.323L12.16 59l4.02-3.9876-2.27-2.8865z" fill="#FDC305"/><path d="M25.9313 27.774s-3.8102-1.4283-5.2103-1.8152c-.6574-.2853-1.3833-.378-2.0921-.2673-.7088.1108-1.3709.4203-1.9081.8922-.548.476-.9862 1.0634-1.2847 1.7224-.2986.659-.4505 1.3741-.4454 2.0966.2114.461.3724.9432.4801 1.4383.05.4761-1.2001.4265-2.0001.4265-.8001 0-.9201-1.4284-.29-3.1048.4915-1.289 1.1007-2.5307 1.82-3.7098C9.55047 28.27 0 34.7771 0 34.7771a46.19571 46.19571 0 018.1904.238c5.2503.5258 5.0003 4.6323 5.0003 4.6323a38.92363 38.92363 0 015.6302-1.101c2.1201-.1389 2.2701 2.1029 2.2701 2.1029l.5301 3.8288a18.24795 18.24795 0 012.6501-2.3409c1.2345-.9802 2.8064-1.443 4.3802-1.2895L25.9313 27.774z" fill="#F06351"/></svg>