<svg width="61" height="51" fill="none" xmlns="http://www.w3.org/2000/svg"><path d="M51.5819 19.854c-1.485-3.589-3.8766-6.7228-6.9363-9.0891-3.0598-2.36621-6.681-3.88228-10.5026-4.39709-3.8216-.5148-7.7102-.01036-11.2784 1.46305-3.5681 1.47341-6.6911 3.86434-9.0578 6.93454-2.3666 3.0701-3.8943 6.7123-4.43071 10.5636-.53641 3.8512-.06284 7.777 1.37351 11.3861 1.4364 3.6091 3.7854 6.7755 6.8129 9.1836s6.6278 3.9739 10.4421 4.5412c-.4996-1.8161-1.0079-3.8233-1.4558-5.9521a27.75624 27.75624 0 004.1004 2.2157s.1034 1.8769.2412 3.971a21.76442 21.76442 0 004.5914-.4084 1.8737 1.8737 0 010-.6604c.2498-1.6249.939-4.5531 1.0768-6.4387.9934-.9373 1.8362-2.0249 2.4981-3.2236l-.0517.3823c-.4738 3.7016-1.4644 7.6551-2.0674 8.75a4.8448 4.8448 0 01-.715.9992c3.1182-.7378 6.04-2.1509 8.5629-4.1413 2.5228-1.9903 4.5863-4.5103 6.0474-7.3852 1.4612-2.8749 2.285-6.036 2.4143-9.2641.1293-3.228-.4389-6.4458-1.6653-9.4303zm-1.2663 3.2932c-.379.3736-1.1629.6256-1.2921-.504-.1293-1.1296-.1637-1.9203-.1637-1.9203s-1.6626-2.9804-2.2828-3.0151c-.6202-.0348-5.0221 3.0151-6.1851 4.3446-1.0078 1.1209-1.206 1.0427-1.206 3.0151 0 1.4859.1896 7.0991.0862 11.3915l-7.0207 1.8856a54.72373 54.72373 0 01-6.7191 1.4945l-.8614-5.0658h-.1206l-2.2139-11.4436s-3.2821-1.2513-4.4881-1.5901c-.5662-.2499-1.1915-.3312-1.8021-.2342s-1.1809.3682-1.6436.7816c-.472.4169-.8495.9315-1.1066 1.5088-.2572.5772-.388 1.2036-.3836 1.8365.1821.4039.3207.8262.4134 1.2599.0431.4171-1.0337.3737-1.7228.3737-.6892 0-.7925-1.2513-.2498-2.7197.4234-1.1292.9481-2.217 1.5678-3.2498.466-.9226 1.0671-1.7691 1.7831-2.5112 0 0 .1206-.2954 1.0768-.2085.9562.0869 6.2712.3736 6.2712.3736l.0431-1.9724a121.94927 121.94927 0 0117.4353-1.1644v1.5902c2.2089-1.0168 4.5875-1.6063 7.012-1.7379a.77806.77806 0 01.3741.0851c.1157.0591.2151.1464.2892.2538.2929.3736 2.0761 2.6068 2.2828 2.9283a24.34465 24.34465 0 011.5764 2.6067 5.44072 5.44072 0 01-.7494 1.5988v.0087z" fill="#FDC305"/><path d="M48.6363 17.8294c.4048.5214.758.9819.8614 1.1209a24.3559 24.3559 0 011.5764 2.6068 5.44385 5.44385 0 01-.7408 1.5467c-.379.3736-1.1629.6256-1.2922-.504-.1292-1.1296-.1809-1.8769-.1809-1.8769s-1.6625-2.9804-2.2827-3.0151c-.6203-.0348-5.0222 3.0151-6.1851 4.3446-1.0079 1.1209-1.206 1.0427-1.206 3.0151 0 1.3034.1464 5.7783.112 9.7579 1.5592.1738 3.8506.6083 4.5397 1.6336 0 0-.2498-6.2388 6.7278-2.9717 0 0 .2412-8.5067 9.8719-6.3257-3.2739-3.8772-7.2873-7.0509-11.8015-9.3322zM39.5654 15.8135a79.24822 79.24822 0 00-1.206-14.36315s-.1292-1.1296-.7494-.20854c-.5118 1.1011-.8601 2.27221-1.0337 3.47566a60.53513 60.53513 0 00-11.0435.29543c-.7064-2.38952-1.9124-3.47566-2.4896-3.18892-.5771.28674-.646 2.85005-.646 2.85005l-.2843 12.30387a121.95624 121.95624 0 0117.4525-1.1644z" fill="#F06351"/><path d="M39.0651 39.9434c.112-.9298.1723-2.1636.2068-3.5278l-7.0203 1.8855a54.72954 54.72954 0 01-6.7189 1.538l.9562 4.3446c0 .0956 0 .1911.0603.2867a27.75415 27.75415 0 004.1002 2.2157c2.0834-1.0046 4.0677-2.2062 5.9263-3.5886v.0522c.989-.9327 1.8287-2.0143 2.4894-3.2063z" fill="#E55645"/><path d="M27.5657 13.0938c-.043-.0869.8614.5909 1.2146.7994.3531.2086.5254.365.5254.5127 0 .1477-.2239.2954-.534.2954-.3101 0-.7925-.1042-.8614-.2259-.0689-.1216.5168 0 .8097 0h.2498a6.98928 6.98928 0 01-1.4041-1.3816zM34.0264 13.1894s-.8614 1.1122-.9389 1.1644c-.0776.0521-.1465.2954.1636.2519a6.9111 6.9111 0 001.0509-.2433c.0948-.0521.0603-.1737-.1034-.1564-.1636.0174-.5857.0435-.8613.0956l.7321-1.1035s.0259-.1043-.043-.0087zM31.3215 18.4985c.3993-.1775.7293-.4829.9389-.8689.2412-.5735 0-.7907-.379-.8689-.5214-.096-1.0596.0095-1.5074.2954-.336.3215-.2929.6343 0 .8689.2909.2302.6092.4228.9475.5735z" fill="#000"/><path d="M31.0113 19.5933a1.77926 1.77926 0 01-.3963.5214c-.2453.1991-.5468.3147-.8613.3302-.4743.0469-.9485-.0897-1.3266-.3824a1.72522 1.72522 0 01-.4565-.391.86243.86243 0 00-.3101-.2172s.646 3.5712 2.2138 4.1447c1.5677.5735 1.8605-.6603 1.9036-.9905.0525-.9889-.1938-1.9706-.7063-2.8153 0-.2607-.0172-.0869-.0603-.1999z" fill="#F06351"/><path d="M29.5469 20.5839a2.99815 2.99815 0 01-1.1382-.4123c-.3479-.2135-.6493-.496-.8861-.8303a.13138.13138 0 01-.0329-.0869c0-.032.0118-.0629.0329-.0868a.12164.12164 0 01.0395-.0271.1207.1207 0 01.0467-.0095c.016 0 .0319.0033.0467.0095a.12018.12018 0 01.0394.0271c.2132.3016.4836.5576.7956.753.312.1954.6594.3263 1.0219.3852.2869-.0217.5645-.1118.8101-.2629.2456-.151.4521-.3587.6026-.606l.1206-.1651.0862.1912s.3273.6604.8613.6951c.5341.0348.9131-.3649 1.4041-1.1209a.12482.12482 0 01.079-.0534.12325.12325 0 01.0933.0187.12546.12546 0 01.0529.0797.12576.12576 0 01-.0185.094c-.5742.8516-1.1169 1.26-1.628 1.2252a1.32846 1.32846 0 01-.5536-.2068 1.34101 1.34101 0 01-.4111-.4275c-.1686.2374-.3875.4339-.6408.5752a1.93469 1.93469 0 01-.8236.2416z" fill="#000"/><path d="M31.2353 32.2795c1.7839 0 3.2302-1.4588 3.2302-3.2584 0-1.7996-1.4463-3.2585-3.2302-3.2585-1.784 0-3.2302 1.4589-3.2302 3.2585s1.4462 3.2584 3.2302 3.2584z" fill="#FDC305"/><path d="M35.5163 26.3709l-2.6961 1.1383.9906-4.892-6.4604 8.4806 2.6961-1.1383-.9906 4.9007 6.4604-8.4893zm-6.3656 3.3279l3.5833-4.7008-.6977 3.4757 1.7228-.7126-3.6092 4.7096.6977-3.4757-1.6969.7038zM27.9447 28.4215c.5328 0 .9648-.4357.9648-.9732 0-.5374-.432-.9732-.9648-.9732-.5328 0-.9648.4358-.9648.9732 0 .5375.432.9732.9648.9732zM33.5612 31.9493c.3759 0 .6805-.3073.6805-.6864s-.3046-.6865-.6805-.6865c-.3758 0-.6805.3074-.6805.6865s.3047.6864.6805.6864zM34.3882 30.0638c.1665 0 .3015-.1362.3015-.3041 0-.168-.135-.3042-.3015-.3042-.1665 0-.3015.1362-.3015.3042 0 .1679.135.3041.3015.3041z" fill="#111"/><path d="M39.5224 17.3863c-1.555 1.4139-3.0195 2.926-4.3847 4.527-1.3599 1.5895-2.8944 3.0179-4.5742 4.2577-.1895-.4605-1.4041-1.3207-1.4041-1.3207s-2.7049-1.8682-4.4795-3.3367a27.57835 27.57835 0 01-2.7048-2.6067l-1.7229-.0956c2.487 3.6644 6.1304 6.3717 10.3371 7.6812.7409-.1216 2.8255-1.6248 4.3847-2.85 1.8447-1.5824 3.5721-3.2988 5.1686-5.1353.4291-.5144.7618-1.1033.982-1.7379-.982.3302-1.6022.617-1.6022.617zM22.3368 23.3297s-3.282-1.2513-4.488-1.5901c-.5663-.2499-1.1916-.3312-1.8022-.2342-.6105.097-1.1808.3682-1.6435.7816-.4721.4169-.8495.9315-1.1067 1.5088-.2571.5772-.388 1.2036-.3836 1.8365.1821.4039.3207.8262.4135 1.2599.0431.4171-1.0337.3737-1.7229.3737-.6891 0-.7925-1.2513-.2498-2.7197.4234-1.1292.9482-2.217 1.5678-3.2498C8.22664 23.7641 0 29.4642 0 29.4642a39.13614 39.13614 0 017.0551.2086c4.5225.4605 4.3071 4.0578 4.3071 4.0578a33.03298 33.03298 0 014.8499-.9645c1.8262-.1216 1.9554 1.8421 1.9554 1.8421l.4566 3.354a15.80414 15.80414 0 012.2828-2.0506c1.0634-.8587 2.4174-1.264 3.773-1.1296l-2.3431-11.4523z" fill="#F06351"/></svg>