<svg width="112" height="232" fill="none" xmlns="http://www.w3.org/2000/svg"><path d="M55.9213 231.52c-12.32 0-22.5867-2.333-30.8-7-8.2134-4.667-14.3734-11.387-18.48005-20.16-4.10667-8.773-6.16-19.133-6.16-31.08v-7.56H30.1613v5.04c.1866 6.72.9333 12.787 2.24 18.2 1.4933 5.413 4.0133 9.707 7.56 12.88 3.7333 3.173 9.0533 4.76 15.96 4.76 7.28 0 12.7866-1.68 16.52-5.04 3.7333-3.547 6.2533-8.493 7.56-14.84 1.3066-6.347 1.96-13.627 1.96-21.84 0-11.947-2.24-21.653-6.72-29.12-4.2934-7.653-11.9467-11.853-22.96-12.6-.56-.187-1.3067-.28-2.24-.28h-1.96V92.92h3.92c10.64-.3733 18.2933-3.1733 22.96-8.4 4.6666-5.2267 7-13.9067 7-26.04 0-10.2667-1.7734-18.48-5.32-24.64-3.36-6.16-10.1734-9.24-20.44-9.24-10.2667 0-17.08 3.4533-20.44 10.36-3.36 6.72-5.2267 15.4-5.6 26.04v4.76H.48125V58.2c0-12.1333 2.05333-22.4933 6.16-31.08C10.7479 18.5333 16.9079 11.9067 25.1213 7.23998c8.4-4.66666 18.76-6.99999 31.08-6.99999 12.5066 0 22.8666 2.33333 31.08 6.99999C95.4946 11.9067 101.655 18.6267 105.761 27.4c4.107 8.5867 6.16 18.9467 6.16 31.08 0 13.6267-2.986 24.5467-8.96 32.76-5.7864 8.2133-13.6264 13.813-23.5197 16.8 6.9066 2.053 12.6933 5.6 17.36 10.64 4.8537 5.04 8.5867 11.48 11.1997 19.32 2.614 7.653 3.92 16.613 3.92 26.88 0 13.44-1.866 25.2-5.6 35.28-3.733 9.893-9.7064 17.64-17.9197 23.24-8.2134 5.413-19.04 8.12-32.48 8.12z" fill="#F2F2F2"/></svg>