<svg width="113" height="229" fill="none" xmlns="http://www.w3.org/2000/svg"><path d="M.62453 229v-21.28l57.67997-89.88c4.2934-6.72 8.2134-12.973 11.76-18.76 3.7334-5.7867 6.72-11.8533 8.96-18.2 2.4267-6.5333 3.64-14 3.64-22.4 0-10.4533-1.68-18.6667-5.04-24.64-3.36-5.9733-9.24-8.96-17.64-8.96-7.0933 0-12.6 1.96-16.52 5.88s-6.6266 9.0533-8.12 15.4c-1.4933 6.3467-2.24 13.16-2.24 20.44v7.56H3.14453v-7.84c0-13.6267 1.77334-25.2933 5.32-35C12.1979 21.4267 18.0779 13.7733 26.1045 8.35999c8.2134-5.41333 19.04-8.12 32.48-8.12 18.2934 0 31.92 5.22667 40.88 15.68001 8.9605 10.2667 13.4405 24.5467 13.4405 42.84 0 9.7067-1.214 18.2-3.64 25.48-2.24 7.28-5.227 14.0933-8.96 20.44-3.7338 6.347-7.8405 12.88-12.3205 19.6l-52.08 79.52h71.6805V229H.62453z" fill="#F2F2F2"/></svg>